<svg version="1.1" xmlns="http://www.w3.org/2000/svg" xmlns:xlink="http://www.w3.org/1999/xlink" x="0px" y="0px"
	 width="499.996px" height="133.102px" viewBox="0 0 499.996 133.102" enable-background="new 0 0 499.996 133.102"
	 xml:space="preserve">
<rect x="148.564" y="30.854" opacity="0.6" fill-rule="evenodd" clip-rule="evenodd" width="1.807" height="84.812"/>
<path fill-rule="evenodd" clip-rule="evenodd" d="M131.388,61.001C127.266,32.072,62.555-4.306,32.249,0.417
	C9.055,4.029,2.395,30.143,0.58,55.492c-3.728,52.026,10.071,86.164,55.078,75.733c21.56-4.998,50.382-23.32,61.96-35.803
	C124.945,87.525,133.583,76.413,131.388,61.001z M90.014,83.492c-6.566,6.777-22.757,16.583-34.763,19.09
	c-25.063,5.241-32.296-13.842-29.608-42.626c1.312-14.022,5.315-28.41,18.21-30.135c16.851-2.253,52.271,18.684,54.206,34.763
	C99.09,73.15,94.17,79.203,90.014,83.492z"/>
<path d="M219.74,59.09l-10.376,32.006h-3.53l-9.053-30.535l-8.753,30.535h-3.752l-9.934-32.006h-4.562v-3.313h7.209l0.956,3.313
	l8.019,26.193l8.316-26.193h-4.048v-3.313h13.171v3.313h-3.897l8.019,25.457l8.534-25.457l0.956-3.313h7.652v3.313H219.74z"/>
<path d="M230.073,78.595c1.605,3.801,4.052,6.527,7.342,8.173c3.557,1.812,7.368,1.997,11.438,0.557
	c0.692-0.244,1.472-0.649,2.338-1.221c0.868-0.564,1.673-1.119,2.415-1.671c0.742-0.548,1.629-1.267,2.669-2.155l1.765,2.342
	c-1.158,0.985-2.173,1.796-3.035,2.441c-0.866,0.644-1.808,1.289-2.83,1.936c-1.02,0.647-1.969,1.126-2.848,1.438
	c-4.901,1.735-9.525,1.525-13.88-0.629c-4.336-2.105-7.396-5.681-9.179-10.722c-1.768-4.993-1.66-9.688,0.321-14.085
	c1.982-4.395,5.402-7.453,10.256-9.173c4.719-1.667,9.14-1.438,13.277,0.689c4.073,2.095,7.264,5.964,9.569,11.599L230.073,78.595z
	 M247.634,59.189c-3.097-1.402-6.426-1.474-9.985-0.212c-3.746,1.325-6.36,3.785-7.847,7.381c-1.115,2.581-1.348,5.604-0.693,9.066
	l25.664-9.083C253.083,63.037,250.702,60.652,247.634,59.189z"/>
<path d="M295.233,85.946c-3.29,3.434-7.583,5.149-12.881,5.149c-2.4,0-4.682-0.539-6.841-1.617
	c-2.256-1.078-4.367-3.041-6.329-5.887v6.988h-3.822V87.27V43.933h-6.331v-3.311h10.153v22.368c1.719-2.942,3.801-5.052,6.255-6.327
	c2.402-1.227,4.831-1.84,7.284-1.84c5.103,0,9.274,1.668,12.512,5.002c3.282,3.289,4.928,7.532,4.928,12.73
	C300.161,78.047,298.515,82.515,295.233,85.946z M292.507,62.179c-2.6-2.795-5.839-4.193-9.711-4.193
	c-3.777,0-6.99,1.398-9.642,4.193c-2.696,2.748-4.044,6.306-4.044,10.671c0,4.559,1.3,8.216,3.899,10.964
	c2.597,2.746,5.812,4.119,9.638,4.119c4.021,0,7.287-1.423,9.788-4.268c2.549-2.846,3.825-6.498,3.825-10.964
	C296.261,68.433,295.008,64.927,292.507,62.179z"/>
<path d="M332.604,88.889c-2.598,1.815-5.638,2.723-9.117,2.723c-5.156,0-9.296-1.718-12.438-5.148
	c-3.188-3.484-4.783-7.899-4.783-13.245c0-5.152,1.596-9.516,4.783-13.098c3.143-3.532,7.137-5.298,11.993-5.298
	c2.451,0,4.611,0.49,6.476,1.471c1.913,0.98,3.456,2.382,4.636,4.196v-2.504h3.164v11.037h-3.164
	c-0.148-3.729-1.326-6.425-3.534-8.093c-2.303-1.767-4.83-2.648-7.577-2.648c-3.829,0-6.916,1.374-9.271,4.117
	c-2.404,2.75-3.608,6.355-3.608,10.819c0,4.462,1.225,8.067,3.683,10.814c2.45,2.748,5.687,4.12,9.711,4.12
	c2.94,0,5.396-0.759,7.357-2.279c2.012-1.57,3.533-3.58,4.564-6.033l3.091,1.323C337.241,84.5,335.257,87.073,332.604,88.889z"/>
<path d="M373.592,86.313c-3.389,3.531-7.529,5.298-12.437,5.298c-4.954,0-9.075-1.767-12.363-5.298c-3.333-3.58-5-7.946-5-13.096
	c0-5.249,1.645-9.613,4.931-13.098c3.284-3.532,7.433-5.298,12.433-5.298c4.907,0,9.026,1.766,12.36,5.298
	c3.337,3.582,5.002,7.945,5.002,13.098C378.518,78.367,376.876,82.733,373.592,86.313z M370.869,62.549
	c-2.551-2.845-5.786-4.268-9.713-4.268c-3.925,0-7.137,1.397-9.64,4.193c-2.551,2.848-3.824,6.428-3.824,10.743
	c0,4.316,1.25,7.872,3.753,10.667c2.551,2.847,5.786,4.268,9.711,4.268c3.927,0,7.139-1.399,9.642-4.193
	c2.545-2.845,3.824-6.425,3.824-10.741C374.622,68.902,373.372,65.346,370.869,62.549z"/>
<path d="M430.541,90.58V87.27V64.386c0-1.911-0.493-3.406-1.477-4.485c-1.029-1.081-2.475-1.619-4.335-1.619
	c-2.061,0-4.221,0.564-6.476,1.691c-2.211,1.175-4.269,2.722-6.184,4.635V90.58h-3.825V64.386c0-1.911-0.491-3.406-1.473-4.485
	c-0.933-1.081-2.407-1.619-4.417-1.619c-2.012,0-4.14,0.588-6.398,1.766c-2.404,1.225-4.464,2.647-6.18,4.268V87.27h5.737v3.311
	h-9.562V87.27V59.09h-6.33v-3.313h10.154v4.713c1.911-1.767,3.923-3.141,6.033-4.123c2.256-1.029,4.533-1.544,6.841-1.544
	c2.209,0,4.097,0.515,5.665,1.544c1.572,1.029,2.675,2.602,3.314,4.711c1.325-1.472,3.333-2.894,6.031-4.268
	c2.551-1.324,4.951-1.987,7.212-1.987c2.897,0,5.199,0.81,6.913,2.43c1.72,1.716,2.578,3.947,2.578,6.693V87.27h5.441v3.311H430.541
	z"/>
<path d="M490.723,90.58V87.27V64.386c0-1.911-0.489-3.406-1.468-4.485c-1.031-1.081-2.479-1.619-4.344-1.619
	c-2.059,0-4.219,0.564-6.476,1.691c-2.207,1.175-4.267,2.722-6.177,4.635V90.58h-3.83V64.386c0-1.911-0.486-3.406-1.47-4.485
	c-0.931-1.081-2.402-1.619-4.415-1.619c-2.011,0-4.146,0.588-6.403,1.766c-2.4,1.225-4.46,2.647-6.176,4.268V87.27h5.736v3.311
	h-9.562V87.27V59.09h-6.333v-3.313h10.159v4.713c1.912-1.767,3.923-3.141,6.029-4.123c2.261-1.029,4.539-1.544,6.848-1.544
	c2.207,0,4.095,0.515,5.66,1.544c1.572,1.029,2.678,2.602,3.312,4.711c1.325-1.472,3.337-2.894,6.036-4.268
	c2.551-1.324,4.952-1.987,7.209-1.987c2.894,0,5.195,0.81,6.917,2.43c1.715,1.716,2.576,3.947,2.576,6.693V87.27h5.442v3.311
	H490.723z"/>
</svg>
